<?xml version="1.0" encoding="UTF-8"?><svg id="Capa_2" xmlns="http://www.w3.org/2000/svg" viewBox="0 0 1165.83 1152.04"><g id="Capa_1-2"><path d="M0,962.98V189.07C0,84.65,84.65,0,189.07,0h787.7c104.42,0,189.07,84.65,189.07,189.07h0v773.91c0,104.42-84.65,189.07-189.07,189.07H189.07C84.65,1152.04,0,1067.4,0,962.98Z" fill="#fff"/><path d="M1149.07,963.26c0,95.11-77.11,172.22-172.22,172.22H188.98c-95.11,0-172.22-77.11-172.22-172.22V189C16.76,93.89,93.86,16.78,188.98,16.78h787.88c95.11,0,172.22,77.11,172.22,172.22h0v774.26Z" fill="#358890"/><path d="M1001.47,789.38c-1.54,3.07-2.78,5.76-3.7,8.05-.97,2.42-2.2,5.12-3.69,8.1-18.68,37.48-41.16,71.02-67.43,100.63-18.25,20.57-39.22,40.11-62.93,58.64-28.53,22.29-60.84,41.29-96.93,57.01-112.29,48.9-242.64,49.01-355.46.49-34.54-14.85-68.02-34.04-98.16-57.44-46.08-35.78-84.12-78.79-114.1-129.03-1-1.68-2.35-4.11-4.05-7.28-1.17-2.18-2.49-4.6-3.97-7.25-4.28-7.68-7.04-12.97-8.28-15.86-1.75-4.1-3.85-8.75-6.3-13.97-.7-1.48-1.28-2.92-1.75-4.34-.68-2.04-1.82-3.39-2.74-5.63-6.65-16.21-12.1-31.43-16.36-45.69-7.23-24.14-12.4-49.3-15.5-75.49-3.88-32.61-4.05-66.61-.49-102.02,4.31-43,15.21-85.16,32.71-126.48,15.17-35.87,35.41-71.25,59.51-101.77,24.82-31.4,51.74-58.34,80.77-80.8,19.83-15.34,42.93-30.21,65.69-42.13,44.93-23.53,92.75-39.18,143.46-46.95.39-.05.73-.31.9-.67,7.97-16.15,18.42-29.84,31.35-41.06,26.22-22.74,56.95-32.83,92.22-30.27,2.88.21,6.36,1.37,10.42,3.46,5.04,2.59,7.3,6.92,6.76,12.98-.03.35-.13.68-.29.99-1.82,3.23-3.22,5.36-4.21,6.4-5.33,5.62-11.82,11.89-19.5,18.82-.1.1-.11.27-.01.38.07.07.16.1.26.07,11.22-3.07,22.81-5.58,34.78-7.51,17.09-2.78,34.46-4.12,51.47-1.47,3.97.61,8.42,2.53,11.1,3.84,1,.49,2.55,2.07,4.66,4.71.3.37.51.8.64,1.25,5.59,20.49-22.29,22.06-34.06,26.97-7.54,3.15-12.91,5.54-16.13,7.18-.24.13-.33.42-.2.66.07.13.2.22.34.25,6.93,1.29,14,3.06,21.21,5.31,20.46,6.4,43.02,14.58,62.57,23.6,57.8,26.66,107.87,63.76,150.2,111.29,26.91,30.21,49.81,64.72,67.13,99.95,9.51,19.34,19.23,42.65,25.7,63.66,11.65,37.83,18.39,75.35,20.24,112.56,3.39,68.24-7.95,133.85-34.02,196.85-2.24,5.43-3.52,8.43-3.81,9.01Z" fill="#fff"/><circle cx="588.45" cy="606.99" r="164.08" fill="#358890"/></g></svg>