<?xml version="1.0" encoding="UTF-8"?><svg id="Capa_2" xmlns="http://www.w3.org/2000/svg" viewBox="0 0 1204.61 390.65"><g id="Capa_1-2"><path d="M989.19,0c.41,0,.81,0,1.22.02,8.61.3,16.44,2.88,23.49,7.73,6.97,4.8,12.13,10.78,15.48,17.95,5.51,11.81,5.27,25.96-.54,37.68-5.67,11.45-17.23,20.58-29.91,23.25-4.04.85-7.35,1.28-9.93,1.27-2.58,0-5.89-.44-9.92-1.31-12.67-2.73-24.19-11.91-29.81-23.38-5.76-11.75-5.94-25.9-.38-37.68,3.37-7.15,8.56-13.12,15.55-17.89,7.07-4.82,14.91-7.36,23.52-7.62.41-.01.82-.02,1.23-.02Z" fill="#358890"/><path d="M91.94,156.18c41.71-37.16,81.79-72.98,120.25-107.45,13.68-12.26,30.93-17.26,48.34-11.16,16.94,5.94,26.68,20.59,28.2,37.86.67,7.61-.58,14.27-3.73,19.97-3.55,6.41-7.71,11.49-12.48,15.22-5.19,4.07-8.26,6.48-9.2,7.25-19.15,15.55-43.91,35.61-74.27,60.19-.22.18-.27.49-.12.73,41.44,63.38,72.48,110.82,93.11,142.32,1.6,2.43,3.46,5.72,5.58,9.86,4.85,9.47,5.27,19.05,1.28,28.74-10.49,25.46-45.91,40.81-68.65,20.63-2.72-2.41-6-6.84-9.84-13.28-4.35-7.3-32.65-53.56-84.89-138.78-.17-.29-.55-.38-.84-.2-.03.02-.05.03-.08.05l-33.52,28.54c-.41.35-.65.86-.65,1.4v72.77c0,2.38.03,5.13.1,8.25.26,12.07-1.15,23.42-7.8,33.68-7.36,11.37-18.91,16.4-32.04,17.71-5.21.52-8.9-.19-14.21-1.38-10.02-2.26-17.89-7.77-23.62-16.54-3.08-4.73-7.35-13.91-7.37-20.09-.1-31.98-.1-122.4-.01-271.25,0-5.42.03-9.21-1.36-13.94-1.39-4.77-3.24-11.7-3.92-17.6-.37-3.26-.23-5.7.44-7.31,2.05-4.94,6.94-7.75,11.79-9.14,17.09-4.91,35.81-2.95,52.72,3.22,6.24,2.29,12.64,5.44,16.14,10.65,1.53,2.28,3.22,4.04,4.6,6.67,3.47,6.6,5.21,13.34,5.24,20.21.07,14.91.08,42.19.03,81.85,0,.26.21.47.47.47.11,0,.22-.04.31-.12Z" fill="#358890"/><path d="M798.75,135.44c-.1-15.88-.3-34.76-.6-56.64-.04-3.26.49-7.75,1.6-13.48,3.86-20.03,18.44-33.51,39.21-33.98,2.75-.07,6.41.25,10.98.94,8.16,1.23,15.21,4.27,21.16,9.11,7.11,5.8,11.37,15.17,12.76,23.84.53,3.28.9,5.69,1.11,7.24.23,1.67.26,8.74.09,21.21-.08,6.11-.12,11.47-.12,16.09-.05,102.19-.03,186.01.06,251.46.01,5.08-.61,14.82-3.66,19.15-2.59,3.67-5.68,6.05-9.27,7.16-7.97,2.45-15.87,2.24-23.7-.64-13.35-4.91-19.68-21.66-23.78-33.88-.07-.21-.31-.33-.52-.25-.05.02-.09.04-.13.07-.09.08-2.4,2.23-6.94,6.44-7.88,7.32-18.12,15.16-27.68,19.62-6.25,2.92-12.5,5.14-18.75,6.67-9.36,2.29-17.91,3.59-25.64,3.91-4.91.21-10.41-.11-16.52-.94-20.99-2.85-40.29-9.84-57.92-20.99-2.38-1.51-5.09-3.49-8.12-5.94-4.04-3.26-6.64-5.44-7.8-6.53-7.57-7.14-14.02-15.14-19.24-22.95-7.37-11.01-12.5-21.78-15.41-32.31-6.45-23.35-7.93-48.21-4.43-74.57.38-2.82,1.04-6.03,1.98-9.63,1-3.86,1.91-8.44,3.4-12.64,5.71-16.17,14.08-30.5,25.11-42.98,3.51-3.98,7.69-8.08,12.52-12.31,4.79-4.19,9.47-7.69,14.05-10.52,20.06-12.38,42.14-19.01,66.24-19.88,2.2-.08,4.3.03,6.31.34,4.24.64,9.21.84,13.79,1.79,3.44.72,6.84,1.18,9.86,2.03,10.69,3,20.53,7.74,29.54,14.23.13.09.31.06.4-.06.04-.05.06-.11.06-.18ZM748.81,201.49c-26.89,0-48.68,23.08-48.68,51.56h0c0,28.48,21.79,51.56,48.68,51.56h0c26.89,0,48.68-23.08,48.68-51.56h0c0-28.48-21.79-51.56-48.68-51.56h0Z" fill="#358890"/><path d="M461.33,106.14c8.75-1.93,18.35-3.59,26.88-2.42.32.05.63.16.9.34,6.42,4.28,1.69,8.25-3.21,9.6-2.95.81-5.87,1.94-8.77,3.39-.11.06-.16.2-.1.31.03.06.09.11.16.12,2.37.4,5.98,1.45,10.83,3.14,19.62,6.86,36.7,17,51.23,30.43,2.7,2.5,4.96,4.81,6.79,6.92,3.06,3.54,5.6,6.06,8.47,9.91,12.63,16.95,21.04,35.03,25.24,54.24,5.28,24.1,4.25,47.81-3.09,71.12-5.04,16.03-12.93,31.67-23.87,45.04-9.11,11.14-19.2,20.48-30.26,28.02-6.77,4.61-14.97,9-24.59,13.17-8.67,3.76-17.56,6.47-26.67,8.14-22.65,4.15-44.66,3.05-66.02-3.28-13.67-4.05-27.35-10.82-41.04-20.31-4.23-2.93-8.77-6.73-13.64-11.4-4.83-4.65-8.93-8.97-12.28-12.96-6.71-8.01-13.37-18.28-18.03-28.28-6.85-14.71-11.12-30.35-12.81-46.91-.41-4.07-.55-9.57-.4-16.5.12-5.75.59-11.22,1.4-16.41,2.09-13.3,5.76-25.69,11.01-37.17,4.8-10.48,11.47-20.8,18.24-29.4,2.13-2.7,6-6.89,11.61-12.56,3.86-3.89,8.21-7.56,13.04-11.01,6.97-4.95,13.03-8.8,18.2-11.55,13.17-6.99,27.79-11.85,43.88-14.56.28-.05.52-.23.65-.48,7.8-14.92,21.93-23.39,38.98-21.12,2.37.31,3.66,1.72,3.87,4.22.05.64-.18,1.26-.63,1.72l-6.16,6.16c-.07.08-.07.21.01.28.05.04.11.06.18.05ZM495.09,252.02c0-27.69-22.45-50.14-50.14-50.14-27.69,0-50.14,22.45-50.14,50.14h0c0,27.69,22.45,50.14,50.14,50.14h0c27.69,0,50.14-22.45,50.14-50.14Z" fill="#358890"/><path d="M1032.43,252.38c.07,53.71.13,84.5.19,92.35.03,2.73-.44,6.73-1.4,12.02-.83,4.58-2.44,8.75-4.84,12.5-9.25,14.47-22.65,21.04-40.18,19.73-21.07-1.57-36.45-16.01-38.28-37.27-.93-10.78-.39-20.99-.41-33.32-.04-32.86-.07-54.83-.08-65.91s-.04-33.05-.08-65.91c-.01-12.33-.57-22.54.33-33.32,1.78-21.26,17.12-35.74,38.19-37.36,17.53-1.36,30.94,5.18,40.23,19.63,2.41,3.75,4.03,7.91,4.87,12.49.97,5.29,1.45,9.29,1.43,12.02-.05,7.85-.04,38.64.03,92.35Z" fill="#358890"/><ellipse cx="1150.93" cy="185.15" rx="53.12" ry="53.68" transform="translate(963.7725 1335.7561) rotate(-89.9)" fill="#2b1607"/></g></svg>