<?xml version="1.0" encoding="UTF-8"?><svg id="Capa_2" xmlns="http://www.w3.org/2000/svg" viewBox="0 0 1205.02 390.55"><g id="Capa_1-2"><path d="M992.61,0c29.84,2.73,49.76,32.29,37.86,60.79-10.55,25.29-41.56,34.71-64.73,20.21-22.65-14.18-27.48-44.71-10.22-65.31,7.39-8.81,17.39-14.04,30-15.69h7.09Z" fill="#afafaf"/><path d="M0,49.54v-4.55c1.63-7.66,8.88-11.46,16.01-12.8,15.35-2.89,30.52-1.94,45.49,2.84,4.61,1.47,8.55,3.14,11.81,4.99,11.53,6.57,18.05,21.32,18.06,33.92,0,51.24,0,78.67,0,82.28,0,.16.14.29.3.28.07,0,.13-.03.18-.07,11.47-10.29,51.33-45.86,119.59-106.73,5.75-5.12,12.79-10.24,20.25-12.49,15.2-4.58,28.81-2.42,40.82,6.49,11.41,8.46,17.32,23.49,16.68,37.56-.6,13.37-8.66,22.96-18.51,30.9-19.09,15.39-46.17,37.31-81.24,65.77-.36.29-.44.8-.19,1.18,60.17,91.74,90.49,137.96,90.96,138.66.81,1.19,2.98,4.78,6.51,10.79,6.9,11.75,7.09,23.49.58,35.22-4.21,7.6-10.02,13.71-17.42,18.34-15.16,9.47-34.69,10.93-48.9-1.31-2.99-2.57-6.61-7.55-10.87-14.95-.07-.14-28.17-46.06-84.29-137.75-.13-.22-.42-.3-.64-.16-.02.01-.04.03-.06.04l-33.49,28.12c-.56.46-.88,1.15-.88,1.88-.02,40.38-.01,67.41.03,81.09.02,7.97-.34,13.73-1.07,17.26-2.19,10.51-7.13,19.76-16.04,26.34-15.22,11.26-39.9,10.43-53.92-2.43-6.94-6.38-11.17-14.82-13.36-23.17-.47-1.76-.69-5.49-.67-11.2.02-7.07.03-97.98.02-272.75,0-.36-.04-.71-.13-1.06L0,49.54Z" fill="#afafaf"/><path d="M824.94,352.87c-.06-.18-.26-.28-.44-.22-.05.02-.1.05-.13.08-13.15,13.04-27.66,24.43-44.89,30.46-6.81,2.38-14.73,4.19-23.78,5.43-16.03,2.19-32.51-.01-48.9-4.68-26.45-7.55-48.14-21.98-65.07-43.31-11.42-14.39-19.17-30.19-23.24-47.4-1.93-8.17-3.28-17.67-4.03-28.49-1.57-22.44.59-44.66,7.96-65.11,3.79-10.53,9.28-20.72,16.46-30.55,14.07-19.27,31.83-33.22,53.29-41.84,13.72-5.51,27.11-8.74,40.18-9.69,22.63-1.64,47.66,4.25,66.33,18.01.13.1.32.07.42-.06.04-.05.06-.12.06-.18-.31-38.79-.47-58.23-.47-58.32-.03-2.43.29-5.61.98-9.54,1.65-9.43,4.98-17.11,10.01-23.02,13.44-15.84,38.11-16.18,55.37-7.52,13.08,6.56,19.28,21.03,20.24,35.11.53,7.81.09,15.49.09,23.35-.02,173.22-.01,260.87.02,262.96.23,13.54-.54,26.98-15.93,30.07-7.82,1.57-15.16.94-22.02-1.89-5.91-2.44-11.31-8.88-14.33-14.39-3.18-5.8-5.91-12.22-8.18-19.26ZM749.08,201.45c-26.95.05-48.75,23.18-48.7,51.67h0c.05,28.49,21.93,51.54,48.88,51.49,26.95-.05,48.75-23.18,48.7-51.67h0c-.05-28.49-21.93-51.54-48.88-51.49Z" fill="#afafaf"/><path d="M477.54,117.26c3.68,1.13,6.23,1.91,7.65,2.35,26.56,8.27,48.63,22.93,66.2,43.96,31.68,37.94,40.5,89.79,23.51,136.19-17.1,46.71-58.71,81-107.95,88.68-45.89,7.16-90.95-8.45-122.72-42.32-34.79-37.09-46.02-90.76-29.63-138.81,8.16-23.92,22.06-44.24,41.71-60.97,19.23-16.37,42.01-26.73,68.34-31.07.26-.04.49-.2.62-.43,1.91-3.37,3.21-5.49,3.92-6.38,8.73-10.99,19.98-16.06,33.77-15.22,2.91.18,4.71,1.62,5.4,4.31.08.34.04.7-.13,1-1.67,2.95-4.76,5.38-6.65,7.23-.1.1-.1.25,0,.35.06.06.16.09.24.07,6.87-1.7,23.53-5.44,29.24-.99,3.62,2.82.49,6.97-2.96,7.87-4.23,1.11-7.76,2.36-10.59,3.77-.11.05-.16.18-.11.29.03.06.08.1.14.12ZM495.52,251.99c0-27.74-22.48-50.22-50.22-50.22s-50.22,22.48-50.22,50.22,22.48,50.22,50.22,50.22,50.22-22.48,50.22-50.22Z" fill="#afafaf"/><path d="M1032.88,252.34c.03,19.23.07,50.2.12,92.91.02,14.89-5.48,27.55-17.24,36.22-12.05,8.88-29.45,10.03-43.27,4.1-14.45-6.19-22.49-17.25-24.13-33.18-.35-3.49-.51-7.41-.46-11.77.35-29.38,0-58.79-.03-88.17s.22-58.79-.2-88.16c-.07-4.36.07-8.28.42-11.77,1.59-15.94,9.61-27.02,24.04-33.25,13.8-5.97,31.21-4.86,43.28,3.98,11.78,8.64,17.32,21.29,17.34,36.18.06,42.7.1,73.67.13,92.91Z" fill="#afafaf"/><path d="M1205.01,184.24c.65,39.93-41.9,66.08-77.21,48.62-18.09-8.94-29.75-26.57-30.08-46.88-.33-20.31,10.75-38.3,28.53-47.83,34.73-18.6,78.11,6.15,78.76,46.09Z" fill="#afafaf"/></g></svg>